<!-- Generator: Adobe Illustrator 19.1.0, SVG Export Plug-In  -->
<svg version="1.1"
	 xmlns="http://www.w3.org/2000/svg" xmlns:xlink="http://www.w3.org/1999/xlink" xmlns:a="http://ns.adobe.com/AdobeSVGViewerExtensions/3.0/"
	 x="0px" y="0px" width="40px" height="43.7px" viewBox="0 0 40 43.7" enable-background="new 0 0 40 43.7" xml:space="preserve">
<defs>
</defs>
<g>
	<circle opacity="0.25" fill="#141B13" cx="20" cy="23.7" r="20"/>
	<circle fill="#00B9EE" cx="20" cy="20" r="20"/>
	<g opacity="0.25">
		<path fill="#FFFFFF" d="M20,0C8.9,0,0,8.9,0,20c0,5.5,2.2,10.5,5.9,14.1L34.1,5.9C30.5,2.2,25.5,0,20,0z"/>
	</g>
	<g>
		<path fill="#FFFFFF" d="M14.9,15c-1.2,1.2-6.4,8.6-1.9,13.1c4.5,4.5,11.9-0.7,13.1-1.9c1.2-1.2-0.4-4.7-3.4-7.8
			C19.6,15.3,16.1,13.8,14.9,15z M24.7,25.1c-0.4,0.3-3.1-0.5-5.7-3.1c-2.6-2.6-3.5-5.3-3.1-5.7c0.3-0.4,3.1,0.5,5.7,3.1
			C24.2,22.1,25.1,24.8,24.7,25.1z M24.9,16.8c0.3,0,0.5-0.1,0.7-0.3l2-2c0.4-0.4,0.4-1.1,0-1.5c-0.4-0.4-1.1-0.4-1.5,0l-2,2
			c-0.4,0.4-0.4,1.1,0,1.5C24.3,16.7,24.6,16.8,24.9,16.8z M21.1,14.2c0.2,0.1,0.3,0.1,0.5,0.1c0.4,0,0.7-0.2,0.9-0.5l1.1-2
			c0.3-0.5,0.1-1.2-0.4-1.4c-0.5-0.3-1.2-0.1-1.4,0.4l-1.1,2C20.4,13.2,20.6,13.9,21.1,14.2z M30.3,17.3c-0.3-0.5-0.9-0.7-1.4-0.4
			l-2,1.1c-0.5,0.3-0.7,0.9-0.4,1.4c0.2,0.3,0.6,0.5,0.9,0.5c0.2,0,0.4,0,0.5-0.1l2-1.1C30.5,18.5,30.6,17.9,30.3,17.3z"/>
	</g>
</g>
</svg>
